<mxfile host="65bd71144e">
    <diagram id="Zho-koFY2Mq97QuQQNne" name="Страница 1">
        <mxGraphModel dx="1203" dy="704" grid="1" gridSize="10" guides="1" tooltips="1" connect="1" arrows="1" fold="1" page="1" pageScale="1" pageWidth="827" pageHeight="1169" math="0" shadow="0">
            <root>
                <mxCell id="0"/>
                <mxCell id="1" parent="0"/>
                <mxCell id="7" value="" style="edgeStyle=none;html=1;entryX=0.5;entryY=0;entryDx=0;entryDy=0;" parent="1" source="2" edge="1" target="26">
                    <mxGeometry relative="1" as="geometry">
                        <mxPoint x="200" y="90" as="targetPoint"/>
                    </mxGeometry>
                </mxCell>
                <mxCell id="2" value="Start" style="ellipse;whiteSpace=wrap;html=1;fontSize=14;fontFamily=Courier New;" parent="1" vertex="1">
                    <mxGeometry x="134" y="20" width="120" height="50" as="geometry"/>
                </mxCell>
                <mxCell id="6" value="" style="edgeStyle=none;html=1;exitX=0.5;exitY=1;exitDx=0;exitDy=0;" parent="1" source="26" target="5" edge="1">
                    <mxGeometry relative="1" as="geometry">
                        <mxPoint x="218" y="210" as="sourcePoint"/>
                    </mxGeometry>
                </mxCell>
                <mxCell id="9" value="" style="edgeStyle=none;html=1;fontSize=14;entryX=0;entryY=0.5;entryDx=0;entryDy=0;" parent="1" source="5" target="55" edge="1">
                    <mxGeometry relative="1" as="geometry">
                        <mxPoint x="460" y="290" as="targetPoint"/>
                    </mxGeometry>
                </mxCell>
                <mxCell id="11" value="" style="edgeStyle=none;html=1;fontSize=14;startArrow=none;" parent="1" target="10" edge="1">
                    <mxGeometry relative="1" as="geometry">
                        <mxPoint x="199.9453125" y="371" as="sourcePoint"/>
                    </mxGeometry>
                </mxCell>
                <mxCell id="5" value="i &amp;lt; length" style="rhombus;whiteSpace=wrap;html=1;rounded=0;fontSize=14;fontFamily=Courier New;" parent="1" vertex="1">
                    <mxGeometry x="107" y="250" width="180" height="80" as="geometry"/>
                </mxCell>
                <mxCell id="18" value="" style="edgeStyle=none;html=1;fontFamily=Courier New;fontSize=14;exitX=0.5;exitY=1;exitDx=0;exitDy=0;" parent="1" source="55" target="17" edge="1">
                    <mxGeometry relative="1" as="geometry">
                        <mxPoint x="532.655021834061" y="200" as="sourcePoint"/>
                    </mxGeometry>
                </mxCell>
                <mxCell id="13" style="edgeStyle=none;html=1;entryX=0;entryY=0.5;entryDx=0;entryDy=0;fontSize=14;exitX=0;exitY=0.5;exitDx=0;exitDy=0;" parent="1" source="23" target="5" edge="1">
                    <mxGeometry relative="1" as="geometry">
                        <mxPoint x="32" y="550" as="sourcePoint"/>
                        <Array as="points">
                            <mxPoint x="7" y="541"/>
                            <mxPoint x="7" y="370"/>
                            <mxPoint x="7" y="290"/>
                        </Array>
                    </mxGeometry>
                </mxCell>
                <mxCell id="10" value="sourceArray[i] = new Random [min, max);&lt;br&gt;i ++;" style="whiteSpace=wrap;html=1;rounded=0;fontSize=14;fontFamily=Courier New;" parent="1" vertex="1">
                    <mxGeometry x="29" y="390" width="335" height="60" as="geometry"/>
                </mxCell>
                <mxCell id="14" value="NO" style="text;html=1;strokeColor=none;fillColor=none;align=center;verticalAlign=middle;whiteSpace=wrap;rounded=0;fontSize=14;" parent="1" vertex="1">
                    <mxGeometry x="338" y="270" width="40" height="40" as="geometry"/>
                </mxCell>
                <mxCell id="15" value="YES" style="text;html=1;strokeColor=none;fillColor=none;align=center;verticalAlign=middle;whiteSpace=wrap;rounded=0;fontSize=14;" parent="1" vertex="1">
                    <mxGeometry x="164.5" y="350" width="65" height="20" as="geometry"/>
                </mxCell>
                <mxCell id="16" value="" style="edgeStyle=none;html=1;fontSize=14;endArrow=none;" parent="1" source="5" target="15" edge="1">
                    <mxGeometry relative="1" as="geometry">
                        <mxPoint x="217" y="330" as="sourcePoint"/>
                        <mxPoint x="217" y="420" as="targetPoint"/>
                    </mxGeometry>
                </mxCell>
                <mxCell id="24" value="" style="edgeStyle=none;html=1;fontFamily=Courier New;fontSize=14;" parent="1" source="10" target="23" edge="1">
                    <mxGeometry relative="1" as="geometry"/>
                </mxCell>
                <mxCell id="36" value="" style="edgeStyle=none;html=1;fontFamily=Courier New;fontSize=14;startArrow=none;" parent="1" source="38" target="35" edge="1">
                    <mxGeometry relative="1" as="geometry"/>
                </mxCell>
                <mxCell id="42" value="" style="edgeStyle=none;html=1;fontFamily=Courier New;fontSize=14;entryX=0;entryY=0.5;entryDx=0;entryDy=0;" parent="1" source="17" edge="1">
                    <mxGeometry relative="1" as="geometry">
                        <mxPoint x="674" y="391" as="targetPoint"/>
                    </mxGeometry>
                </mxCell>
                <mxCell id="17" value="i &amp;lt; length;" style="rhombus;whiteSpace=wrap;html=1;rounded=0;fontFamily=Courier New;fontSize=14;" parent="1" vertex="1">
                    <mxGeometry x="448" y="361" width="160" height="60" as="geometry"/>
                </mxCell>
                <mxCell id="28" value="" style="edgeStyle=none;html=1;fontFamily=Courier New;fontSize=14;startArrow=none;" parent="1" source="29" target="27" edge="1">
                    <mxGeometry relative="1" as="geometry"/>
                </mxCell>
                <mxCell id="23" value="sourceArray[i]%2 == 0;" style="rhombus;whiteSpace=wrap;html=1;rounded=0;fontFamily=Courier New;fontSize=14;" parent="1" vertex="1">
                    <mxGeometry x="70" y="503" width="250" height="75" as="geometry"/>
                </mxCell>
                <mxCell id="26" value="&#10;&#10;&lt;span style=&quot;color: rgb(240, 240, 240); font-family: &amp;quot;courier new&amp;quot;; font-size: 14px; font-style: normal; font-weight: 400; letter-spacing: normal; text-align: center; text-indent: 0px; text-transform: none; word-spacing: 0px; background-color: rgb(42, 42, 42); display: inline; float: none;&quot;&gt;int&amp;nbsp; length =&amp;nbsp; 25;&lt;/span&gt;&lt;br style=&quot;color: rgb(240, 240, 240); font-family: &amp;quot;courier new&amp;quot;; font-size: 14px; font-style: normal; font-weight: 400; letter-spacing: normal; text-align: center; text-indent: 0px; text-transform: none; word-spacing: 0px; background-color: rgb(42, 42, 42);&quot;&gt;&lt;span style=&quot;color: rgb(240, 240, 240); font-family: &amp;quot;courier new&amp;quot;; font-size: 14px; font-style: normal; font-weight: 400; letter-spacing: normal; text-align: center; text-indent: 0px; text-transform: none; word-spacing: 0px; background-color: rgb(42, 42, 42); display: inline; float: none;&quot;&gt;int count = 0;&lt;/span&gt;&lt;br style=&quot;color: rgb(240, 240, 240); font-family: &amp;quot;courier new&amp;quot;; font-size: 14px; font-style: normal; font-weight: 400; letter-spacing: normal; text-align: center; text-indent: 0px; text-transform: none; word-spacing: 0px; background-color: rgb(42, 42, 42);&quot;&gt;&lt;span style=&quot;color: rgb(240, 240, 240); font-family: &amp;quot;courier new&amp;quot;; font-size: 14px; font-style: normal; font-weight: 400; letter-spacing: normal; text-align: center; text-indent: 0px; text-transform: none; word-spacing: 0px; background-color: rgb(42, 42, 42); display: inline; float: none;&quot;&gt;int min = -50;&lt;/span&gt;&lt;br style=&quot;color: rgb(240, 240, 240); font-family: &amp;quot;courier new&amp;quot;; font-size: 14px; font-style: normal; font-weight: 400; letter-spacing: normal; text-align: center; text-indent: 0px; text-transform: none; word-spacing: 0px; background-color: rgb(42, 42, 42);&quot;&gt;&lt;span style=&quot;color: rgb(240, 240, 240); font-family: &amp;quot;courier new&amp;quot;; font-size: 14px; font-style: normal; font-weight: 400; letter-spacing: normal; text-align: center; text-indent: 0px; text-transform: none; word-spacing: 0px; background-color: rgb(42, 42, 42); display: inline; float: none;&quot;&gt;int max = 50;&lt;/span&gt;&lt;br style=&quot;color: rgb(240, 240, 240); font-family: &amp;quot;courier new&amp;quot;; font-size: 14px; font-style: normal; font-weight: 400; letter-spacing: normal; text-align: center; text-indent: 0px; text-transform: none; word-spacing: 0px; background-color: rgb(42, 42, 42);&quot;&gt;&lt;span style=&quot;color: rgb(240, 240, 240); font-family: &amp;quot;courier new&amp;quot;; font-size: 14px; font-style: normal; font-weight: 400; letter-spacing: normal; text-align: center; text-indent: 0px; text-transform: none; word-spacing: 0px; background-color: rgb(42, 42, 42); display: inline; float: none;&quot;&gt;int i = 0;&lt;/span&gt;&lt;br style=&quot;color: rgb(240, 240, 240); font-family: &amp;quot;courier new&amp;quot;; font-size: 14px; font-style: normal; font-weight: 400; letter-spacing: normal; text-align: center; text-indent: 0px; text-transform: none; word-spacing: 0px; background-color: rgb(42, 42, 42);&quot;&gt;&lt;span style=&quot;color: rgb(240, 240, 240); font-family: &amp;quot;courier new&amp;quot;; font-size: 14px; font-style: normal; font-weight: 400; letter-spacing: normal; text-align: center; text-indent: 0px; text-transform: none; word-spacing: 0px; background-color: rgb(42, 42, 42); display: inline; float: none;&quot;&gt;int j = 0;&lt;/span&gt;&#10;&#10;" style="shape=parallelogram;perimeter=parallelogramPerimeter;whiteSpace=wrap;html=1;fixedSize=1;fontFamily=Courier New;fontSize=14;size=-19;" parent="1" vertex="1">
                    <mxGeometry x="110" y="100" width="170" height="110" as="geometry"/>
                </mxCell>
                <mxCell id="34" style="edgeStyle=none;html=1;exitX=0;exitY=0.5;exitDx=0;exitDy=0;fontFamily=Courier New;fontSize=14;" parent="1" source="27" edge="1">
                    <mxGeometry relative="1" as="geometry">
                        <mxPoint x="7" y="543" as="targetPoint"/>
                        <Array as="points">
                            <mxPoint x="7" y="663"/>
                        </Array>
                    </mxGeometry>
                </mxCell>
                <mxCell id="27" value="Count ++" style="whiteSpace=wrap;html=1;rounded=0;fontFamily=Courier New;fontSize=14;" parent="1" vertex="1">
                    <mxGeometry x="135" y="643" width="120" height="40" as="geometry"/>
                </mxCell>
                <mxCell id="29" value="YES" style="text;html=1;strokeColor=none;fillColor=none;align=center;verticalAlign=middle;whiteSpace=wrap;rounded=0;fontSize=14;" parent="1" vertex="1">
                    <mxGeometry x="175" y="593" width="40" height="20" as="geometry"/>
                </mxCell>
                <mxCell id="30" value="" style="edgeStyle=none;html=1;fontFamily=Courier New;fontSize=14;endArrow=none;" parent="1" source="23" target="29" edge="1">
                    <mxGeometry relative="1" as="geometry">
                        <mxPoint x="217" y="578" as="sourcePoint"/>
                        <mxPoint x="217" y="623" as="targetPoint"/>
                    </mxGeometry>
                </mxCell>
                <mxCell id="31" value="NO" style="text;html=1;strokeColor=none;fillColor=none;align=center;verticalAlign=middle;whiteSpace=wrap;rounded=0;fontSize=14;" parent="1" vertex="1">
                    <mxGeometry x="27" y="530.5" width="40" height="20" as="geometry"/>
                </mxCell>
                <mxCell id="48" value="" style="edgeStyle=none;html=1;fontFamily=Courier New;fontSize=14;" parent="1" source="35" target="47" edge="1">
                    <mxGeometry relative="1" as="geometry"/>
                </mxCell>
                <mxCell id="35" value="sourceArray[i]%2 == 0" style="rhombus;whiteSpace=wrap;html=1;rounded=0;fontFamily=Courier New;fontSize=14;" parent="1" vertex="1">
                    <mxGeometry x="404" y="483" width="250" height="80" as="geometry"/>
                </mxCell>
                <mxCell id="37" value="" style="endArrow=classic;html=1;fontFamily=Courier New;fontSize=14;entryX=0;entryY=0.5;entryDx=0;entryDy=0;exitX=0;exitY=0.5;exitDx=0;exitDy=0;" parent="1" source="35" target="17" edge="1">
                    <mxGeometry width="50" height="50" relative="1" as="geometry">
                        <mxPoint x="364" y="510" as="sourcePoint"/>
                        <mxPoint x="414" y="460" as="targetPoint"/>
                        <Array as="points">
                            <mxPoint x="381" y="521"/>
                            <mxPoint x="378" y="451"/>
                            <mxPoint x="378" y="390"/>
                        </Array>
                    </mxGeometry>
                </mxCell>
                <mxCell id="38" value="YES" style="text;html=1;strokeColor=none;fillColor=none;align=center;verticalAlign=middle;whiteSpace=wrap;rounded=0;fontSize=14;" parent="1" vertex="1">
                    <mxGeometry x="509" y="440" width="40" height="20" as="geometry"/>
                </mxCell>
                <mxCell id="39" value="" style="edgeStyle=none;html=1;fontFamily=Courier New;fontSize=14;endArrow=none;" parent="1" source="17" target="38" edge="1">
                    <mxGeometry relative="1" as="geometry">
                        <mxPoint x="529" y="420" as="sourcePoint"/>
                        <mxPoint x="529" y="490" as="targetPoint"/>
                    </mxGeometry>
                </mxCell>
                <mxCell id="40" value="NO" style="text;html=1;strokeColor=none;fillColor=none;align=center;verticalAlign=middle;whiteSpace=wrap;rounded=0;fontSize=14;" parent="1" vertex="1">
                    <mxGeometry x="365" y="460" width="40" height="20" as="geometry"/>
                </mxCell>
                <mxCell id="52" value="" style="edgeStyle=none;html=1;fontFamily=Courier New;fontSize=14;startArrow=none;" parent="1" target="51" edge="1">
                    <mxGeometry relative="1" as="geometry">
                        <mxPoint x="742" y="415.5" as="sourcePoint"/>
                    </mxGeometry>
                </mxCell>
                <mxCell id="45" value="NO" style="text;html=1;strokeColor=none;fillColor=none;align=center;verticalAlign=middle;whiteSpace=wrap;rounded=0;fontSize=14;" parent="1" vertex="1">
                    <mxGeometry x="619" y="380" width="40" height="20" as="geometry"/>
                </mxCell>
                <mxCell id="47" value="evenArray[j] = sourceArray[i];&lt;br&gt;j ++" style="whiteSpace=wrap;html=1;rounded=0;fontFamily=Courier New;fontSize=14;" parent="1" vertex="1">
                    <mxGeometry x="401" y="623" width="260" height="60" as="geometry"/>
                </mxCell>
                <mxCell id="49" value="YES" style="text;html=1;strokeColor=none;fillColor=none;align=center;verticalAlign=middle;whiteSpace=wrap;rounded=0;fontSize=14;" parent="1" vertex="1">
                    <mxGeometry x="508" y="578" width="40" height="20" as="geometry"/>
                </mxCell>
                <mxCell id="50" value="" style="endArrow=classic;html=1;fontFamily=Courier New;fontSize=14;exitX=0;exitY=0.5;exitDx=0;exitDy=0;" parent="1" source="47" edge="1">
                    <mxGeometry width="50" height="50" relative="1" as="geometry">
                        <mxPoint x="393" y="653" as="sourcePoint"/>
                        <mxPoint x="381" y="523" as="targetPoint"/>
                        <Array as="points">
                            <mxPoint x="381" y="653"/>
                        </Array>
                    </mxGeometry>
                </mxCell>
                <mxCell id="51" value="END" style="ellipse;whiteSpace=wrap;html=1;rounded=0;fontFamily=Courier New;fontSize=14;" parent="1" vertex="1">
                    <mxGeometry x="682" y="491" width="120" height="59.5" as="geometry"/>
                </mxCell>
                <mxCell id="55" value="&lt;span style=&quot;font-family: &amp;#34;courier new&amp;#34; ; font-size: 14px&quot;&gt;Get sourceArray&lt;/span&gt;" style="shape=parallelogram;perimeter=parallelogramPerimeter;whiteSpace=wrap;html=1;fixedSize=1;" vertex="1" parent="1">
                    <mxGeometry x="438" y="260" width="180" height="60" as="geometry"/>
                </mxCell>
                <mxCell id="58" value="&lt;span style=&quot;font-family: &amp;#34;courier new&amp;#34; ; font-size: 14px&quot;&gt;Get evenArray&lt;/span&gt;" style="shape=parallelogram;perimeter=parallelogramPerimeter;whiteSpace=wrap;html=1;fixedSize=1;" vertex="1" parent="1">
                    <mxGeometry x="664" y="375.5" width="156" height="49" as="geometry"/>
                </mxCell>
                <mxCell id="59" value="" style="edgeStyle=none;html=1;fontFamily=Courier New;fontSize=14;endArrow=none;" edge="1" parent="1">
                    <mxGeometry relative="1" as="geometry">
                        <mxPoint x="750" y="420" as="sourcePoint"/>
                        <mxPoint x="748.7586206896551" y="415.5" as="targetPoint"/>
                    </mxGeometry>
                </mxCell>
            </root>
        </mxGraphModel>
    </diagram>
</mxfile>